%
M48
M72
T01C0.02000
T02C0.03094
T03C0.03200
T04C0.03937
T05C0.04000
T06C0.05906
T07C0.12795
%
T01
X85800Y133800
X176200Y205800
X189000Y192200
X217000Y173800
X223400Y167400
X204200Y161000
X197800Y155400
X189000Y146600
X201000Y144200
X151400Y213800
X174600Y250600
X189000Y285000
X161800Y290600
X223400Y235400
X295500Y214500
X304200Y204200
X296000Y188000
X305800Y140200
X275000Y68000
X193800Y61800
X195000Y52500
X323400Y241800
X334600Y290600
X330000Y305000
X300000Y315000
T02
X291496Y140000
X291496Y130000
X291496Y120000
X291496Y110000
X291496Y100000
X291496Y90000
X291496Y80000
X248504Y80000
X248504Y90000
X248504Y100000
X248504Y110000
X248504Y120000
X248504Y130000
X248504Y140000
X231496Y140000
X231496Y130000
X231496Y120000
X231496Y110000
X231496Y100000
X231496Y90000
X231496Y80000
X188504Y80000
X188504Y90000
X188504Y100000
X188504Y110000
X188504Y120000
X188504Y130000
X188504Y140000
T03
X81500Y16000
X85500Y32500
X85500Y42500
X85500Y57500
X105000Y73500
X105000Y85000
X105000Y97000
X104500Y111000
X104500Y124000
X104500Y137000
X104500Y150000
X104500Y163500
X104500Y176000
X104500Y188500
X104500Y201000
X104500Y214000
X104500Y226000
X104500Y238000
X104500Y250000
X104500Y262000
X104000Y273500
X104000Y285000
X104000Y296500
X104000Y308500
X86000Y295500
X86000Y285500
X86000Y255500
X86000Y245500
X86000Y210500
X86000Y200500
X86000Y167500
X86000Y157500
X86000Y125500
X86000Y115500
X85500Y97500
X145000Y97000
X145000Y85000
X145000Y73500
X117500Y42500
X117500Y32500
X121500Y16000
X144500Y111000
X144500Y124000
X144500Y137000
X144500Y150000
X144500Y163500
X144500Y176000
X144500Y188500
X144500Y201000
X144500Y214000
X144500Y226000
X144500Y238000
X144500Y250000
X144500Y262000
X144000Y273500
X144000Y285000
X144000Y296500
X144000Y308500
X205000Y305000
X205000Y295000
X205000Y285000
X205000Y275000
X205000Y265000
X205000Y255000
X205000Y245000
X205000Y235000
X205000Y225000
X205000Y215000
X205000Y205000
X205000Y195000
X205000Y185000
X205000Y175000
X235000Y175000
X235000Y185000
X235000Y195000
X235000Y205000
X235000Y215000
X235000Y225000
X235000Y235000
X235000Y245000
X235000Y255000
X235000Y265000
X235000Y275000
X235000Y285000
X235000Y295000
X235000Y305000
X285000Y305000
X285000Y295000
X285000Y285000
X285000Y275000
X285000Y265000
X285000Y255000
X285000Y245000
X285000Y235000
X285000Y225000
X285000Y215000
X285000Y205000
X285000Y195000
X285000Y185000
X285000Y175000
X315000Y175000
X315000Y185000
X315000Y195000
X315000Y205000
X315000Y215000
X315000Y225000
X315000Y235000
X315000Y245000
X315000Y255000
X315000Y265000
X315000Y275000
X315000Y285000
X315000Y295000
X315000Y305000
X377500Y250500
X387500Y250500
X385500Y272500
X385500Y312500
X387500Y220500
X377500Y220500
X384500Y197500
X384500Y157500
T04
X370000Y66969
X360000Y66969
X350000Y66969
X340000Y66969
X330000Y66969
T05
X345000Y150000
X345000Y160000
X345000Y170000
X345000Y180000
X345000Y190000
X345000Y200000
X345000Y210000
X345000Y220000
X345000Y240000
X345000Y250000
X345000Y260000
X345000Y270000
X345000Y280000
X345000Y290000
X155000Y290000
X155000Y280000
X155000Y270000
X155000Y260000
X155000Y250000
X155000Y240000
X155000Y230000
X155000Y220000
X155000Y205000
X155000Y195000
X155000Y185000
X155000Y175000
X155000Y165000
X155000Y155000
X155000Y145000
X155000Y135000
X155000Y125000
X155000Y115000
T06
X62685Y123193
X52843Y109807
X43000Y116500
X33157Y125161
X27252Y107839
X27252Y152839
X43000Y161500
X33157Y170161
X52843Y154807
X62685Y168193
X52343Y198307
X42500Y205000
X32657Y213661
X26752Y196339
X62185Y211693
X26752Y239839
X42500Y248500
X32657Y257161
X52343Y241807
X62185Y255193
X52520Y284654
X42677Y291346
X32835Y300008
X26929Y282685
X62362Y298039
T07
X327362Y40000
X372638Y40000
M30
