G75*
%MOIN*%
%OFA0B0*%
%FSLAX25Y25*%
%IPPOS*%
%LPD*%
%AMOC8*
5,1,8,0,0,1.08239X$1,22.5*
%
%ADD10C,0.00500*%
D10*
X0024299Y0101146D02*
X0030205Y0101146D01*
X0030205Y0114925D01*
X0024299Y0114925D01*
X0024299Y0101146D01*
X0040047Y0109807D02*
X0045953Y0109807D01*
X0045953Y0123587D01*
X0040047Y0123587D01*
X0040047Y0109807D01*
X0036110Y0118469D02*
X0030205Y0118469D01*
X0030205Y0132248D01*
X0036110Y0132248D01*
X0036110Y0118469D01*
X0049890Y0116894D02*
X0055795Y0116894D01*
X0055795Y0103114D01*
X0049890Y0103114D01*
X0049890Y0116894D01*
X0059732Y0116500D02*
X0065638Y0116500D01*
X0065638Y0130280D01*
X0059732Y0130280D01*
X0059732Y0116500D01*
X0065638Y0116500D02*
X0065638Y0130280D01*
X0055795Y0148114D02*
X0049890Y0148114D01*
X0049890Y0161894D01*
X0055795Y0161894D01*
X0055795Y0148114D01*
X0045953Y0154807D02*
X0040047Y0154807D01*
X0040047Y0168587D01*
X0045953Y0168587D01*
X0045953Y0154807D01*
X0036110Y0163469D02*
X0030205Y0163469D01*
X0030205Y0177248D01*
X0036110Y0177248D01*
X0036110Y0163469D01*
X0030205Y0159925D02*
X0024299Y0159925D01*
X0024299Y0146146D01*
X0030205Y0146146D01*
X0030205Y0159925D01*
X0059732Y0161500D02*
X0065638Y0161500D01*
X0065638Y0175280D01*
X0059732Y0175280D01*
X0059732Y0161500D01*
X0065638Y0161500D02*
X0065638Y0175280D01*
X0055295Y0191614D02*
X0049390Y0191614D01*
X0049390Y0205394D01*
X0055295Y0205394D01*
X0055295Y0191614D01*
X0045453Y0198307D02*
X0039547Y0198307D01*
X0039547Y0212087D01*
X0045453Y0212087D01*
X0045453Y0198307D01*
X0035610Y0206969D02*
X0029705Y0206969D01*
X0029705Y0220748D01*
X0035610Y0220748D01*
X0035610Y0206969D01*
X0029705Y0203425D02*
X0023799Y0203425D01*
X0023799Y0189646D01*
X0029705Y0189646D01*
X0029705Y0203425D01*
X0059232Y0205000D02*
X0065138Y0205000D01*
X0065138Y0218780D01*
X0059232Y0218780D01*
X0059232Y0205000D01*
X0065138Y0205000D02*
X0065138Y0218780D01*
X0055295Y0235114D02*
X0049390Y0235114D01*
X0049390Y0248894D01*
X0055295Y0248894D01*
X0055295Y0235114D01*
X0045453Y0241807D02*
X0039547Y0241807D01*
X0039547Y0255587D01*
X0045453Y0255587D01*
X0045453Y0241807D01*
X0035610Y0250469D02*
X0029705Y0250469D01*
X0029705Y0264248D01*
X0035610Y0264248D01*
X0035610Y0250469D01*
X0029705Y0246925D02*
X0023799Y0246925D01*
X0023799Y0233146D01*
X0029705Y0233146D01*
X0029705Y0246925D01*
X0059232Y0248500D02*
X0065138Y0248500D01*
X0065138Y0262280D01*
X0059232Y0262280D01*
X0059232Y0248500D01*
X0065138Y0248500D02*
X0065138Y0262280D01*
X0055472Y0277961D02*
X0049567Y0277961D01*
X0049567Y0291740D01*
X0055472Y0291740D01*
X0055472Y0277961D01*
X0045630Y0284654D02*
X0039724Y0284654D01*
X0039724Y0298433D01*
X0045630Y0298433D01*
X0045630Y0284654D01*
X0035787Y0293315D02*
X0029882Y0293315D01*
X0029882Y0307094D01*
X0035787Y0307094D01*
X0035787Y0293315D01*
X0029882Y0289772D02*
X0023976Y0289772D01*
X0023976Y0275992D01*
X0029882Y0275992D01*
X0029882Y0289772D01*
X0059409Y0291346D02*
X0065315Y0291346D01*
X0065315Y0305126D01*
X0059409Y0305126D01*
X0059409Y0291346D01*
X0065315Y0291346D02*
X0065315Y0305126D01*
M02*
